<svg width="1018" height="427" viewBox="0 0 1018 427" fill="none" xmlns="http://www.w3.org/2000/svg">
<g filter="url(#filter0_d_512_494)">
<path d="M351 348.5C351.828 348.5 352.5 347.828 352.5 347L352.5 333.5C352.5 332.672 351.828 332 351 332C350.172 332 349.5 332.672 349.5 333.5L349.5 345.5L337.5 345.5C336.672 345.5 336 346.172 336 347C336 347.828 336.672 348.5 337.5 348.5L351 348.5ZM166.939 165.061L349.939 348.061L352.061 345.939L169.061 162.939L166.939 165.061Z" fill="url(#paint0_linear_512_494)"/>
</g>
<g filter="url(#filter1_d_512_494)">
<path d="M877 305.5C877.828 305.5 878.5 304.828 878.5 304L878.5 290.5C878.5 289.672 877.828 289 877 289C876.172 289 875.5 289.672 875.5 290.5L875.5 302.5L863.5 302.5C862.672 302.5 862 303.172 862 304C862 304.828 862.672 305.5 863.5 305.5L877 305.5ZM692.939 122.061L875.939 305.061L878.061 302.939L695.061 119.939L692.939 122.061Z" fill="url(#paint1_linear_512_494)"/>
</g>
<g filter="url(#filter2_d_512_494)">
<path d="M619.694 107.891C619.634 107.065 618.915 106.444 618.089 106.504L604.624 107.487C603.798 107.547 603.177 108.265 603.238 109.092C603.298 109.918 604.016 110.539 604.843 110.479L616.811 109.605L617.684 121.574C617.744 122.4 618.463 123.021 619.289 122.96C620.116 122.9 620.736 122.181 620.676 121.355L619.694 107.891ZM450.135 304.813L619.333 108.981L617.063 107.02L447.865 302.851L450.135 304.813Z" fill="url(#paint2_linear_512_494)"/>
</g>
<g filter="url(#filter3_d_512_494)">
<path d="M200 117.5C200 172.452 156.124 217 102 217C47.8761 217 4 172.452 4 117.5C4 62.5473 102 -11.5003 102 17.9997C102 47.4997 200 62.5473 200 117.5Z" fill="url(#paint3_linear_512_494)"/>
</g>
<g filter="url(#filter4_d_512_494)">
<path d="M464 307.212C464 362.164 420.124 406.712 366 406.712C311.876 406.712 268 362.164 268 307.212C268 252.26 366 178.212 366 207.712C366 237.212 464 252.26 464 307.212Z" fill="url(#paint4_linear_512_494)"/>
</g>
<g filter="url(#filter5_d_512_494)">
<path d="M780 106.212C780 161.164 736.124 205.712 682 205.712C627.876 205.712 584 161.164 584 106.212C584 51.2597 682 -22.7879 682 6.71208C682 36.2121 780 51.2597 780 106.212Z" fill="url(#paint5_linear_512_494)"/>
</g>
<g filter="url(#filter6_d_512_494)">
<path d="M1014 319.213C1014 374.165 970.124 418.713 916 418.713C861.876 418.713 818 374.165 818 319.213C818 264.26 916 190.213 916 219.713C916 249.213 1014 264.26 1014 319.213Z" fill="url(#paint6_linear_512_494)"/>
</g>
<path d="M26.6836 151.184L28.3828 149.26C28.5977 149.787 28.9427 150.204 29.418 150.51C29.8932 150.809 30.4271 150.959 31.0195 150.959C31.7357 150.959 32.3021 150.79 32.7188 150.451C33.1354 150.113 33.3438 149.657 33.3438 149.084C33.3438 148.407 32.6504 147.733 31.2637 147.062C30.8145 146.848 30.4596 146.672 30.1992 146.535C28.9492 145.884 28.0833 145.249 27.6016 144.631C27.1198 144.006 26.8789 143.264 26.8789 142.404C26.8789 141.226 27.3444 140.259 28.2754 139.504C29.2129 138.742 30.4271 138.361 31.918 138.361C32.7839 138.361 33.5293 138.514 34.1543 138.82C34.7858 139.12 35.3424 139.592 35.8242 140.236L34.0176 141.965C33.8027 141.548 33.5163 141.239 33.1582 141.037C32.8066 140.829 32.3802 140.725 31.8789 140.725C31.2734 140.725 30.7852 140.878 30.4141 141.184C30.043 141.483 29.8574 141.874 29.8574 142.355C29.8574 143.111 30.5931 143.801 32.0645 144.426C32.3574 144.549 32.582 144.647 32.7383 144.719C33.9492 145.272 34.8444 145.897 35.4238 146.594C36.0098 147.29 36.3027 148.085 36.3027 148.977C36.3027 150.318 35.8438 151.389 34.9258 152.189C34.0143 152.984 32.7871 153.381 31.2441 153.381C30.1504 153.381 29.2129 153.192 28.4316 152.814C27.6504 152.437 27.0677 151.893 26.6836 151.184ZM45.6289 148.195C45.6289 147.336 45.4108 146.656 44.9746 146.154C44.5449 145.653 43.9622 145.402 43.2266 145.402C42.4714 145.402 41.8757 145.653 41.4395 146.154C41.0098 146.649 40.7949 147.329 40.7949 148.195C40.7949 149.061 41.0065 149.735 41.4297 150.217C41.8594 150.699 42.4518 150.939 43.207 150.939C43.9753 150.939 44.571 150.699 44.9941 150.217C45.4173 149.735 45.6289 149.061 45.6289 148.195ZM48.168 153H45.4727L45.5117 151.623C45.1341 152.229 44.6784 152.674 44.1445 152.961C43.6172 153.241 42.9727 153.381 42.2109 153.381C40.9414 153.381 39.916 152.909 39.1348 151.965C38.36 151.021 37.9727 149.774 37.9727 148.225C37.9727 146.61 38.3535 145.354 39.1152 144.455C39.8835 143.55 40.9479 143.098 42.3086 143.098C43.0182 143.098 43.64 143.257 44.1738 143.576C44.7142 143.895 45.1667 144.37 45.5312 145.002V143.42H48.168V153ZM51.1367 153V145.598H49.7988V143.42H51.1367V140.236H53.9199V143.42H55.2578V145.598H53.9199V153H51.1367ZM56.8496 139.484C56.8496 139.042 57.0091 138.661 57.3281 138.342C57.6471 138.023 58.028 137.863 58.4707 137.863C58.9199 137.863 59.304 138.023 59.623 138.342C59.9486 138.654 60.1113 139.035 60.1113 139.484C60.1113 139.934 59.9486 140.318 59.623 140.637C59.304 140.956 58.9199 141.115 58.4707 141.115C58.028 141.115 57.6471 140.952 57.3281 140.627C57.0091 140.301 56.8496 139.921 56.8496 139.484ZM57.0938 153V143.42H59.8672V153H57.0938ZM61.752 151.32L63.8906 150.217C63.9622 150.588 64.1543 150.881 64.4668 151.096C64.7793 151.311 65.1667 151.418 65.6289 151.418C66.0846 151.418 66.4427 151.337 66.7031 151.174C66.9635 151.005 67.0938 150.773 67.0938 150.48C67.0938 150.018 66.6315 149.631 65.707 149.318C65.4206 149.221 65.1927 149.139 65.0234 149.074C63.8971 148.651 63.1159 148.225 62.6797 147.795C62.25 147.365 62.0352 146.835 62.0352 146.203C62.0352 145.266 62.403 144.507 63.1387 143.928C63.8743 143.348 64.8444 143.059 66.0488 143.059C66.9082 143.059 67.6504 143.231 68.2754 143.576C68.9069 143.921 69.3659 144.41 69.6523 145.041L67.6113 146.057C67.5007 145.699 67.3086 145.428 67.0352 145.246C66.7617 145.057 66.4199 144.963 66.0098 144.963C65.5996 144.963 65.2676 145.048 65.0137 145.217C64.7598 145.386 64.6328 145.607 64.6328 145.881C64.6328 146.356 65.2643 146.799 66.5273 147.209C66.6771 147.255 66.791 147.29 66.8691 147.316C67.9173 147.661 68.6628 148.065 69.1055 148.527C69.5482 148.983 69.7695 149.566 69.7695 150.275C69.7695 151.226 69.4017 151.981 68.666 152.541C67.9303 153.101 66.9375 153.381 65.6875 153.381C64.6979 153.381 63.8516 153.199 63.1484 152.834C62.4518 152.463 61.9863 151.958 61.752 151.32ZM72.1523 153V145.598H70.9121V143.42H72.1523V141.262C72.1523 139.973 72.4486 139.051 73.041 138.498C73.6335 137.938 74.61 137.658 75.9707 137.658C76.1204 137.658 76.293 137.674 76.4883 137.707C76.6901 137.733 76.9505 137.785 77.2695 137.863V140.08C77.1003 139.989 76.9375 139.924 76.7812 139.885C76.625 139.839 76.4622 139.816 76.293 139.816C75.8047 139.816 75.4564 139.947 75.248 140.207C75.0397 140.461 74.9355 140.904 74.9355 141.535V143.42H76.7129V145.598H74.9355V153H72.1523ZM78.2949 139.484C78.2949 139.042 78.4544 138.661 78.7734 138.342C79.0924 138.023 79.4733 137.863 79.916 137.863C80.3652 137.863 80.7493 138.023 81.0684 138.342C81.3939 138.654 81.5566 139.035 81.5566 139.484C81.5566 139.934 81.3939 140.318 81.0684 140.637C80.7493 140.956 80.3652 141.115 79.916 141.115C79.4733 141.115 79.0924 140.952 78.7734 140.627C78.4544 140.301 78.2949 139.921 78.2949 139.484ZM78.5391 153V143.42H81.3125V153H78.5391ZM90.7363 147.219C90.6582 146.613 90.4368 146.158 90.0723 145.852C89.7142 145.539 89.2227 145.383 88.5977 145.383C87.9727 145.383 87.4714 145.539 87.0938 145.852C86.7227 146.158 86.485 146.613 86.3809 147.219H90.7363ZM93.4902 148.898H86.293C86.4036 149.589 86.6543 150.106 87.0449 150.451C87.4355 150.79 87.9661 150.959 88.6367 150.959C89.1445 150.959 89.5807 150.861 89.9453 150.666C90.3164 150.471 90.6257 150.174 90.873 149.777L93.1191 150.9C92.5983 151.74 91.9668 152.365 91.2246 152.775C90.4824 153.179 89.6003 153.381 88.5781 153.381C87.0286 153.381 85.8014 152.919 84.8965 151.994C83.9915 151.07 83.5391 149.826 83.5391 148.264C83.5391 146.76 84.0111 145.523 84.9551 144.553C85.9056 143.583 87.1198 143.098 88.5977 143.098C90.1211 143.098 91.3255 143.553 92.2109 144.465C93.0964 145.37 93.5391 146.607 93.5391 148.176C93.5391 148.26 93.5358 148.355 93.5293 148.459C93.5228 148.557 93.5098 148.703 93.4902 148.898ZM102.66 148.195C102.66 147.336 102.442 146.656 102.006 146.154C101.576 145.653 100.993 145.402 100.258 145.402C99.5026 145.402 98.9069 145.65 98.4707 146.145C98.041 146.633 97.8262 147.31 97.8262 148.176C97.8262 149.042 98.0378 149.719 98.4609 150.207C98.8906 150.695 99.4831 150.939 100.238 150.939C101.007 150.939 101.602 150.699 102.025 150.217C102.449 149.735 102.66 149.061 102.66 148.195ZM105.199 153H102.504L102.543 151.623C102.165 152.229 101.71 152.674 101.176 152.961C100.648 153.241 100.004 153.381 99.2422 153.381C97.9727 153.381 96.9473 152.909 96.166 151.965C95.3913 151.021 95.0039 149.774 95.0039 148.225C95.0039 146.604 95.3848 145.34 96.1465 144.436C96.9147 143.531 97.9792 143.078 99.3398 143.078C100.036 143.078 100.648 143.238 101.176 143.557C101.703 143.876 102.198 144.38 102.66 145.07C102.628 144.836 102.602 144.579 102.582 144.299C102.569 144.012 102.562 143.687 102.562 143.322V137.863H105.199V153ZM125.834 142.424C125.215 141.87 124.581 141.467 123.93 141.213C123.279 140.952 122.582 140.822 121.84 140.822C120.316 140.822 119.102 141.278 118.197 142.189C117.292 143.101 116.84 144.325 116.84 145.861C116.84 147.365 117.26 148.56 118.1 149.445C118.939 150.324 120.085 150.764 121.537 150.764C122.364 150.764 123.132 150.627 123.842 150.354C124.551 150.074 125.209 149.657 125.814 149.104L125.795 152.238C125.144 152.622 124.46 152.909 123.744 153.098C123.035 153.286 122.286 153.381 121.498 153.381C119.219 153.381 117.348 152.674 115.883 151.262C114.424 149.842 113.695 148.042 113.695 145.861C113.695 143.687 114.428 141.893 115.893 140.48C117.357 139.068 119.245 138.361 121.557 138.361C122.331 138.361 123.08 138.443 123.803 138.605C124.525 138.768 125.238 139.019 125.941 139.357L125.834 142.424ZM128.539 153V137.863H131.312V153H128.539ZM133.998 139.484C133.998 139.042 134.158 138.661 134.477 138.342C134.796 138.023 135.176 137.863 135.619 137.863C136.068 137.863 136.452 138.023 136.771 138.342C137.097 138.654 137.26 139.035 137.26 139.484C137.26 139.934 137.097 140.318 136.771 140.637C136.452 140.956 136.068 141.115 135.619 141.115C135.176 141.115 134.796 140.952 134.477 140.627C134.158 140.301 133.998 139.921 133.998 139.484ZM134.242 153V143.42H137.016V153H134.242ZM146.439 147.219C146.361 146.613 146.14 146.158 145.775 145.852C145.417 145.539 144.926 145.383 144.301 145.383C143.676 145.383 143.174 145.539 142.797 145.852C142.426 146.158 142.188 146.613 142.084 147.219H146.439ZM149.193 148.898H141.996C142.107 149.589 142.357 150.106 142.748 150.451C143.139 150.79 143.669 150.959 144.34 150.959C144.848 150.959 145.284 150.861 145.648 150.666C146.02 150.471 146.329 150.174 146.576 149.777L148.822 150.9C148.301 151.74 147.67 152.365 146.928 152.775C146.186 153.179 145.303 153.381 144.281 153.381C142.732 153.381 141.505 152.919 140.6 151.994C139.695 151.07 139.242 149.826 139.242 148.264C139.242 146.76 139.714 145.523 140.658 144.553C141.609 143.583 142.823 143.098 144.301 143.098C145.824 143.098 147.029 143.553 147.914 144.465C148.799 145.37 149.242 146.607 149.242 148.176C149.242 148.26 149.239 148.355 149.232 148.459C149.226 148.557 149.213 148.703 149.193 148.898ZM151.303 153V143.42H154.027V144.924C154.529 144.299 155.066 143.84 155.639 143.547C156.218 143.247 156.859 143.098 157.562 143.098C158.305 143.098 158.926 143.225 159.428 143.479C159.936 143.726 160.336 144.107 160.629 144.621C160.772 144.888 160.873 145.191 160.932 145.529C160.997 145.861 161.029 146.385 161.029 147.102V147.404V153H158.246V148.264C158.246 147.085 158.109 146.307 157.836 145.93C157.562 145.552 157.094 145.363 156.43 145.363C156.046 145.363 155.691 145.445 155.365 145.607C155.046 145.764 154.779 145.988 154.564 146.281C154.395 146.509 154.271 146.77 154.193 147.062C154.122 147.355 154.086 147.801 154.086 148.4V148.781V153H151.303ZM164.008 153V145.598H162.67V143.42H164.008V140.236H166.791V143.42H168.129V145.598H166.791V153H164.008ZM168.92 151.32L171.059 150.217C171.13 150.588 171.322 150.881 171.635 151.096C171.947 151.311 172.335 151.418 172.797 151.418C173.253 151.418 173.611 151.337 173.871 151.174C174.132 151.005 174.262 150.773 174.262 150.48C174.262 150.018 173.799 149.631 172.875 149.318C172.589 149.221 172.361 149.139 172.191 149.074C171.065 148.651 170.284 148.225 169.848 147.795C169.418 147.365 169.203 146.835 169.203 146.203C169.203 145.266 169.571 144.507 170.307 143.928C171.042 143.348 172.012 143.059 173.217 143.059C174.076 143.059 174.818 143.231 175.443 143.576C176.075 143.921 176.534 144.41 176.82 145.041L174.779 146.057C174.669 145.699 174.477 145.428 174.203 145.246C173.93 145.057 173.588 144.963 173.178 144.963C172.768 144.963 172.436 145.048 172.182 145.217C171.928 145.386 171.801 145.607 171.801 145.881C171.801 146.356 172.432 146.799 173.695 147.209C173.845 147.255 173.959 147.29 174.037 147.316C175.085 147.661 175.831 148.065 176.273 148.527C176.716 148.983 176.938 149.566 176.938 150.275C176.938 151.226 176.57 151.981 175.834 152.541C175.098 153.101 174.105 153.381 172.855 153.381C171.866 153.381 171.02 153.199 170.316 152.834C169.62 152.463 169.154 151.958 168.92 151.32Z" fill="white"/>
<path d="M313.543 335.703L315.662 343.457C315.799 343.952 315.926 344.482 316.043 345.049C316.16 345.615 316.271 346.25 316.375 346.953C316.388 346.361 316.43 345.778 316.502 345.205C316.58 344.626 316.694 344.043 316.844 343.457L318.699 335.703H321.717L317.977 350H315.037L312.479 340.879C312.355 340.462 312.257 340.042 312.186 339.619C312.114 339.196 312.065 338.757 312.039 338.301C312.007 338.783 311.954 339.238 311.883 339.668C311.818 340.098 311.73 340.501 311.619 340.879L309.041 350H306.102L302.361 335.703H305.418L307.303 343.643C307.407 344.098 307.492 344.593 307.557 345.127C307.622 345.654 307.671 346.23 307.703 346.855C307.827 346.029 308.055 344.98 308.387 343.711L308.436 343.506L310.535 335.703H313.543ZM329.607 345.225C329.607 344.443 329.38 343.822 328.924 343.359C328.468 342.891 327.856 342.656 327.088 342.656C326.32 342.656 325.711 342.887 325.262 343.35C324.812 343.812 324.588 344.437 324.588 345.225C324.588 346.006 324.812 346.631 325.262 347.1C325.711 347.568 326.32 347.803 327.088 347.803C327.85 347.803 328.458 347.568 328.914 347.1C329.376 346.631 329.607 346.006 329.607 345.225ZM332.439 345.244C332.439 346.715 331.935 347.939 330.926 348.916C329.923 349.893 328.65 350.381 327.107 350.381C325.551 350.381 324.269 349.893 323.26 348.916C322.251 347.939 321.746 346.715 321.746 345.244C321.746 343.779 322.254 342.555 323.27 341.572C324.285 340.589 325.564 340.098 327.107 340.098C328.657 340.098 329.933 340.583 330.936 341.553C331.938 342.523 332.439 343.753 332.439 345.244ZM337.234 342.881C337.514 341.95 337.915 341.253 338.436 340.791C338.963 340.329 339.614 340.098 340.389 340.098C340.564 340.098 340.854 340.13 341.258 340.195C341.336 340.208 341.395 340.218 341.434 340.225L341.014 343.213C340.805 343.128 340.594 343.066 340.379 343.027C340.171 342.982 339.949 342.959 339.715 342.959C338.868 342.959 338.26 343.177 337.889 343.613C337.518 344.043 337.332 344.766 337.332 345.781V350H334.549V340.42H337.293L337.234 342.881ZM342.693 334.863H345.477V344.658L349.031 340.42H352.371L348.514 344.658L352.752 350H349.314L345.477 344.922V350H342.693V334.863ZM369.461 345.156L370.516 346.396C370.958 345.941 371.297 345.407 371.531 344.795C371.772 344.176 371.893 343.538 371.893 342.881C371.893 341.527 371.466 340.387 370.613 339.463C369.76 338.538 368.696 338.076 367.42 338.076C366.124 338.076 365.05 338.538 364.197 339.463C363.344 340.381 362.918 341.52 362.918 342.881C362.918 344.255 363.335 345.394 364.168 346.299C365.008 347.204 366.072 347.656 367.361 347.656C367.472 347.656 367.625 347.646 367.82 347.627C368.022 347.601 368.26 347.565 368.533 347.52L366.473 345.156H369.461ZM374.959 351.66H371.912L370.359 349.824C369.656 350.007 369.07 350.137 368.602 350.215C368.139 350.299 367.726 350.342 367.361 350.342C366.378 350.342 365.415 350.15 364.471 349.766C363.527 349.382 362.703 348.848 362 348.164C361.277 347.461 360.721 346.654 360.33 345.742C359.946 344.824 359.754 343.864 359.754 342.861C359.754 341.859 359.946 340.905 360.33 340C360.714 339.089 361.271 338.275 362 337.559C362.71 336.855 363.53 336.318 364.461 335.947C365.398 335.57 366.385 335.381 367.42 335.381C368.436 335.381 369.409 335.57 370.34 335.947C371.271 336.318 372.098 336.855 372.82 337.559C373.543 338.268 374.096 339.076 374.48 339.98C374.865 340.885 375.057 341.846 375.057 342.861C375.057 343.981 374.826 345.026 374.363 345.996C373.901 346.966 373.224 347.829 372.332 348.584L374.959 351.66ZM380.105 340.42V345.459C380.105 346.305 380.268 346.911 380.594 347.275C380.926 347.64 381.463 347.822 382.205 347.822C382.941 347.822 383.475 347.64 383.807 347.275C384.139 346.904 384.305 346.299 384.305 345.459V340.42H387.088V345.459C387.088 347.145 386.694 348.389 385.906 349.189C385.118 349.984 383.898 350.381 382.244 350.381C380.558 350.381 379.318 349.984 378.523 349.189C377.736 348.395 377.342 347.152 377.342 345.459V340.42H380.105ZM396.824 345.195C396.824 344.336 396.606 343.656 396.17 343.154C395.74 342.653 395.158 342.402 394.422 342.402C393.667 342.402 393.071 342.653 392.635 343.154C392.205 343.649 391.99 344.329 391.99 345.195C391.99 346.061 392.202 346.735 392.625 347.217C393.055 347.699 393.647 347.939 394.402 347.939C395.171 347.939 395.766 347.699 396.189 347.217C396.613 346.735 396.824 346.061 396.824 345.195ZM399.363 350H396.668L396.707 348.623C396.329 349.229 395.874 349.674 395.34 349.961C394.812 350.241 394.168 350.381 393.406 350.381C392.137 350.381 391.111 349.909 390.33 348.965C389.555 348.021 389.168 346.774 389.168 345.225C389.168 343.61 389.549 342.354 390.311 341.455C391.079 340.55 392.143 340.098 393.504 340.098C394.214 340.098 394.835 340.257 395.369 340.576C395.91 340.895 396.362 341.37 396.727 342.002V340.42H399.363V350ZM402.098 350V334.863H404.871V350H402.098ZM407.557 336.484C407.557 336.042 407.716 335.661 408.035 335.342C408.354 335.023 408.735 334.863 409.178 334.863C409.627 334.863 410.011 335.023 410.33 335.342C410.656 335.654 410.818 336.035 410.818 336.484C410.818 336.934 410.656 337.318 410.33 337.637C410.011 337.956 409.627 338.115 409.178 338.115C408.735 338.115 408.354 337.952 408.035 337.627C407.716 337.301 407.557 336.921 407.557 336.484ZM407.801 350V340.42H410.574V350H407.801ZM413.738 350V342.598H412.4V340.42H413.738V337.236H416.521V340.42H417.859V342.598H416.521V350H413.738ZM421.951 349.258L418.094 340.42H421.307L422.967 344.805C423.077 345.078 423.169 345.394 423.24 345.752C423.312 346.104 423.367 346.497 423.406 346.934C423.471 346.582 423.553 346.224 423.65 345.859C423.748 345.495 423.868 345.107 424.012 344.697L425.467 340.42H428.65L422.947 354.355H419.871L421.951 349.258Z" fill="white"/>
<path d="M614.115 130.424C613.497 129.87 612.862 129.467 612.211 129.213C611.56 128.952 610.863 128.822 610.121 128.822C608.598 128.822 607.383 129.278 606.479 130.189C605.574 131.101 605.121 132.325 605.121 133.861C605.121 135.365 605.541 136.56 606.381 137.445C607.221 138.324 608.367 138.764 609.818 138.764C610.645 138.764 611.413 138.627 612.123 138.354C612.833 138.074 613.49 137.657 614.096 137.104L614.076 140.238C613.425 140.622 612.742 140.909 612.025 141.098C611.316 141.286 610.567 141.381 609.779 141.381C607.501 141.381 605.629 140.674 604.164 139.262C602.706 137.842 601.977 136.042 601.977 133.861C601.977 131.687 602.709 129.893 604.174 128.48C605.639 127.068 607.527 126.361 609.838 126.361C610.613 126.361 611.361 126.443 612.084 126.605C612.807 126.768 613.52 127.019 614.223 127.357L614.115 130.424ZM623.959 136.225C623.959 135.443 623.731 134.822 623.275 134.359C622.82 133.891 622.208 133.656 621.439 133.656C620.671 133.656 620.062 133.887 619.613 134.35C619.164 134.812 618.939 135.437 618.939 136.225C618.939 137.006 619.164 137.631 619.613 138.1C620.062 138.568 620.671 138.803 621.439 138.803C622.201 138.803 622.81 138.568 623.266 138.1C623.728 137.631 623.959 137.006 623.959 136.225ZM626.791 136.244C626.791 137.715 626.286 138.939 625.277 139.916C624.275 140.893 623.002 141.381 621.459 141.381C619.903 141.381 618.62 140.893 617.611 139.916C616.602 138.939 616.098 137.715 616.098 136.244C616.098 134.779 616.605 133.555 617.621 132.572C618.637 131.589 619.916 131.098 621.459 131.098C623.008 131.098 624.285 131.583 625.287 132.553C626.29 133.523 626.791 134.753 626.791 136.244ZM631.645 141H628.861V131.42H631.645V132.924C632.1 132.292 632.585 131.83 633.1 131.537C633.62 131.244 634.21 131.098 634.867 131.098C635.661 131.098 636.306 131.26 636.801 131.586C637.302 131.911 637.657 132.403 637.865 133.061C638.308 132.41 638.809 131.921 639.369 131.596C639.936 131.264 640.554 131.098 641.225 131.098C641.902 131.098 642.475 131.225 642.943 131.479C643.419 131.726 643.786 132.1 644.047 132.602C644.184 132.875 644.281 133.184 644.34 133.529C644.398 133.874 644.428 134.398 644.428 135.102V135.404V141H641.645V136.264C641.645 135.098 641.524 134.324 641.283 133.939C641.049 133.555 640.635 133.363 640.043 133.363C639.327 133.363 638.806 133.63 638.48 134.164C638.161 134.698 638.002 135.57 638.002 136.781V141H635.219V136.264C635.219 135.137 635.108 134.376 634.887 133.979C634.665 133.581 634.285 133.383 633.744 133.383C633.008 133.383 632.475 133.653 632.143 134.193C631.811 134.727 631.645 135.59 631.645 136.781V141ZM649.623 136.195C649.623 137.061 649.835 137.735 650.258 138.217C650.688 138.699 651.283 138.939 652.045 138.939C652.807 138.939 653.399 138.699 653.822 138.217C654.252 137.735 654.467 137.061 654.467 136.195C654.467 135.329 654.249 134.649 653.812 134.154C653.383 133.653 652.787 133.402 652.025 133.402C651.29 133.402 650.704 133.653 650.268 134.154C649.838 134.656 649.623 135.336 649.623 136.195ZM647.084 145.355V131.42H649.75V133.002C650.115 132.364 650.561 131.889 651.088 131.576C651.622 131.257 652.24 131.098 652.943 131.098C654.304 131.098 655.368 131.55 656.137 132.455C656.905 133.354 657.289 134.61 657.289 136.225C657.289 137.781 656.902 139.031 656.127 139.975C655.352 140.912 654.333 141.381 653.07 141.381C652.309 141.381 651.661 141.241 651.127 140.961C650.6 140.674 650.147 140.229 649.77 139.623C649.802 139.864 649.825 140.128 649.838 140.414C649.857 140.694 649.867 141.016 649.867 141.381V145.355H647.084ZM659.516 141V125.863H662.289V141H659.516ZM671.713 135.219C671.635 134.613 671.413 134.158 671.049 133.852C670.691 133.539 670.199 133.383 669.574 133.383C668.949 133.383 668.448 133.539 668.07 133.852C667.699 134.158 667.462 134.613 667.357 135.219H671.713ZM674.467 136.898H667.27C667.38 137.589 667.631 138.106 668.021 138.451C668.412 138.79 668.943 138.959 669.613 138.959C670.121 138.959 670.557 138.861 670.922 138.666C671.293 138.471 671.602 138.174 671.85 137.777L674.096 138.9C673.575 139.74 672.943 140.365 672.201 140.775C671.459 141.179 670.577 141.381 669.555 141.381C668.005 141.381 666.778 140.919 665.873 139.994C664.968 139.07 664.516 137.826 664.516 136.264C664.516 134.76 664.988 133.523 665.932 132.553C666.882 131.583 668.096 131.098 669.574 131.098C671.098 131.098 672.302 131.553 673.188 132.465C674.073 133.37 674.516 134.607 674.516 136.176C674.516 136.26 674.512 136.355 674.506 136.459C674.499 136.557 674.486 136.703 674.467 136.898ZM676.918 141V133.598H675.58V131.42H676.918V128.236H679.701V131.42H681.039V133.598H679.701V141H676.918ZM689.369 135.219C689.291 134.613 689.07 134.158 688.705 133.852C688.347 133.539 687.855 133.383 687.23 133.383C686.605 133.383 686.104 133.539 685.727 133.852C685.355 134.158 685.118 134.613 685.014 135.219H689.369ZM692.123 136.898H684.926C685.036 137.589 685.287 138.106 685.678 138.451C686.068 138.79 686.599 138.959 687.27 138.959C687.777 138.959 688.214 138.861 688.578 138.666C688.949 138.471 689.258 138.174 689.506 137.777L691.752 138.9C691.231 139.74 690.6 140.365 689.857 140.775C689.115 141.179 688.233 141.381 687.211 141.381C685.661 141.381 684.434 140.919 683.529 139.994C682.624 139.07 682.172 137.826 682.172 136.264C682.172 134.76 682.644 133.523 683.588 132.553C684.538 131.583 685.753 131.098 687.23 131.098C688.754 131.098 689.958 131.553 690.844 132.465C691.729 133.37 692.172 134.607 692.172 136.176C692.172 136.26 692.169 136.355 692.162 136.459C692.156 136.557 692.143 136.703 692.123 136.898ZM703.705 133.158H704.145C704.978 133.158 705.583 132.986 705.961 132.641C706.339 132.296 706.527 131.742 706.527 130.98C706.527 130.277 706.339 129.766 705.961 129.447C705.583 129.122 704.978 128.959 704.145 128.959H703.705V133.158ZM700.629 141V126.703H704.145C706.02 126.703 707.403 127.061 708.295 127.777C709.193 128.493 709.643 129.6 709.643 131.098C709.643 132.484 709.19 133.572 708.285 134.359C707.387 135.147 706.14 135.541 704.545 135.541H703.705V141H700.629ZM713.852 133.881C714.132 132.95 714.532 132.253 715.053 131.791C715.58 131.329 716.231 131.098 717.006 131.098C717.182 131.098 717.471 131.13 717.875 131.195C717.953 131.208 718.012 131.218 718.051 131.225L717.631 134.213C717.423 134.128 717.211 134.066 716.996 134.027C716.788 133.982 716.566 133.959 716.332 133.959C715.486 133.959 714.877 134.177 714.506 134.613C714.135 135.043 713.949 135.766 713.949 136.781V141H711.166V131.42H713.91L713.852 133.881ZM726.557 136.225C726.557 135.443 726.329 134.822 725.873 134.359C725.417 133.891 724.805 133.656 724.037 133.656C723.269 133.656 722.66 133.887 722.211 134.35C721.762 134.812 721.537 135.437 721.537 136.225C721.537 137.006 721.762 137.631 722.211 138.1C722.66 138.568 723.269 138.803 724.037 138.803C724.799 138.803 725.408 138.568 725.863 138.1C726.326 137.631 726.557 137.006 726.557 136.225ZM729.389 136.244C729.389 137.715 728.884 138.939 727.875 139.916C726.872 140.893 725.6 141.381 724.057 141.381C722.501 141.381 721.218 140.893 720.209 139.916C719.2 138.939 718.695 137.715 718.695 136.244C718.695 134.779 719.203 133.555 720.219 132.572C721.234 131.589 722.514 131.098 724.057 131.098C725.606 131.098 726.882 131.583 727.885 132.553C728.887 133.523 729.389 134.753 729.389 136.244ZM731.361 127.484C731.361 127.042 731.521 126.661 731.84 126.342C732.159 126.023 732.54 125.863 732.982 125.863C733.432 125.863 733.816 126.023 734.135 126.342C734.46 126.654 734.623 127.035 734.623 127.484C734.623 127.934 734.46 128.318 734.135 128.637C733.816 128.956 733.432 129.115 732.982 129.115C732.54 129.115 732.159 128.952 731.84 128.627C731.521 128.301 731.361 127.921 731.361 127.484ZM731.605 145.355V131.42H734.379V145.355H731.605ZM743.803 135.219C743.725 134.613 743.503 134.158 743.139 133.852C742.781 133.539 742.289 133.383 741.664 133.383C741.039 133.383 740.538 133.539 740.16 133.852C739.789 134.158 739.551 134.613 739.447 135.219H743.803ZM746.557 136.898H739.359C739.47 137.589 739.721 138.106 740.111 138.451C740.502 138.79 741.033 138.959 741.703 138.959C742.211 138.959 742.647 138.861 743.012 138.666C743.383 138.471 743.692 138.174 743.939 137.777L746.186 138.9C745.665 139.74 745.033 140.365 744.291 140.775C743.549 141.179 742.667 141.381 741.645 141.381C740.095 141.381 738.868 140.919 737.963 139.994C737.058 139.07 736.605 137.826 736.605 136.264C736.605 134.76 737.077 133.523 738.021 132.553C738.972 131.583 740.186 131.098 741.664 131.098C743.188 131.098 744.392 131.553 745.277 132.465C746.163 133.37 746.605 134.607 746.605 136.176C746.605 136.26 746.602 136.355 746.596 136.459C746.589 136.557 746.576 136.703 746.557 136.898ZM755.727 140.717C755.349 140.945 754.952 141.111 754.535 141.215C754.118 141.326 753.663 141.381 753.168 141.381C751.658 141.381 750.427 140.902 749.477 139.945C748.526 138.982 748.051 137.732 748.051 136.195C748.051 134.691 748.529 133.467 749.486 132.523C750.443 131.573 751.684 131.098 753.207 131.098C753.715 131.098 754.171 131.146 754.574 131.244C754.978 131.342 755.362 131.495 755.727 131.703L755.707 134.496C755.414 134.197 755.076 133.965 754.691 133.803C754.307 133.64 753.9 133.559 753.471 133.559C752.689 133.559 752.064 133.799 751.596 134.281C751.127 134.757 750.893 135.388 750.893 136.176C750.893 136.983 751.13 137.628 751.605 138.109C752.087 138.585 752.735 138.822 753.549 138.822C753.998 138.822 754.395 138.741 754.74 138.578C755.092 138.415 755.414 138.161 755.707 137.816L755.727 140.717ZM758.168 141V133.598H756.83V131.42H758.168V128.236H760.951V131.42H762.289V133.598H760.951V141H758.168Z" fill="white"/>
<path d="M856.004 350.561L854.402 345.941C854.357 345.805 854.298 345.57 854.227 345.238C854.155 344.906 854.08 344.499 854.002 344.018C853.917 344.48 853.836 344.896 853.758 345.268C853.68 345.632 853.621 345.876 853.582 346L852.039 350.561H856.004ZM846.902 356L852.342 341.703H855.838L861.355 356H857.879L856.717 352.963H851.18L850.184 356H846.902ZM870.584 346.42L871.971 351.381C871.997 351.479 872.029 351.651 872.068 351.898C872.114 352.146 872.192 352.654 872.303 353.422C872.361 353.122 872.433 352.807 872.518 352.475C872.609 352.143 872.719 351.771 872.85 351.361L874.344 346.42H877.371L874.051 356H871.082L869.646 351.039C869.62 350.948 869.578 350.801 869.52 350.6C869.305 349.851 869.148 349.239 869.051 348.764C868.966 349.206 868.882 349.61 868.797 349.975C868.719 350.339 868.634 350.681 868.543 351L867.068 356H864.109L860.789 346.42H863.826L865.291 351.176C865.421 351.605 865.529 351.996 865.613 352.348C865.698 352.693 865.77 353.048 865.828 353.412C865.88 353.015 865.942 352.634 866.014 352.27C866.085 351.898 866.17 351.54 866.268 351.195L867.547 346.42H870.584ZM885.672 351.195C885.672 350.336 885.454 349.656 885.018 349.154C884.588 348.653 884.005 348.402 883.27 348.402C882.514 348.402 881.919 348.653 881.482 349.154C881.053 349.649 880.838 350.329 880.838 351.195C880.838 352.061 881.049 352.735 881.473 353.217C881.902 353.699 882.495 353.939 883.25 353.939C884.018 353.939 884.614 353.699 885.037 353.217C885.46 352.735 885.672 352.061 885.672 351.195ZM888.211 356H885.516L885.555 354.623C885.177 355.229 884.721 355.674 884.188 355.961C883.66 356.241 883.016 356.381 882.254 356.381C880.984 356.381 879.959 355.909 879.178 354.965C878.403 354.021 878.016 352.774 878.016 351.225C878.016 349.61 878.396 348.354 879.158 347.455C879.926 346.55 880.991 346.098 882.352 346.098C883.061 346.098 883.683 346.257 884.217 346.576C884.757 346.895 885.21 347.37 885.574 348.002V346.42H888.211V356ZM893.523 348.881C893.803 347.95 894.204 347.253 894.725 346.791C895.252 346.329 895.903 346.098 896.678 346.098C896.854 346.098 897.143 346.13 897.547 346.195C897.625 346.208 897.684 346.218 897.723 346.225L897.303 349.213C897.094 349.128 896.883 349.066 896.668 349.027C896.46 348.982 896.238 348.959 896.004 348.959C895.158 348.959 894.549 349.177 894.178 349.613C893.807 350.043 893.621 350.766 893.621 351.781V356H890.838V346.42H893.582L893.523 348.881ZM906.043 351.195C906.043 350.336 905.825 349.656 905.389 349.154C904.959 348.653 904.376 348.402 903.641 348.402C902.885 348.402 902.29 348.65 901.854 349.145C901.424 349.633 901.209 350.31 901.209 351.176C901.209 352.042 901.421 352.719 901.844 353.207C902.273 353.695 902.866 353.939 903.621 353.939C904.389 353.939 904.985 353.699 905.408 353.217C905.831 352.735 906.043 352.061 906.043 351.195ZM908.582 356H905.887L905.926 354.623C905.548 355.229 905.092 355.674 904.559 355.961C904.031 356.241 903.387 356.381 902.625 356.381C901.355 356.381 900.33 355.909 899.549 354.965C898.774 354.021 898.387 352.774 898.387 351.225C898.387 349.604 898.768 348.34 899.529 347.436C900.298 346.531 901.362 346.078 902.723 346.078C903.419 346.078 904.031 346.238 904.559 346.557C905.086 346.876 905.581 347.38 906.043 348.07C906.01 347.836 905.984 347.579 905.965 347.299C905.952 347.012 905.945 346.687 905.945 346.322V340.863H908.582V356ZM927.645 341.703L929.764 349.457C929.9 349.952 930.027 350.482 930.145 351.049C930.262 351.615 930.372 352.25 930.477 352.953C930.49 352.361 930.532 351.778 930.604 351.205C930.682 350.626 930.796 350.043 930.945 349.457L932.801 341.703H935.818L932.078 356H929.139L926.58 346.879C926.456 346.462 926.359 346.042 926.287 345.619C926.215 345.196 926.167 344.757 926.141 344.301C926.108 344.783 926.056 345.238 925.984 345.668C925.919 346.098 925.831 346.501 925.721 346.879L923.143 356H920.203L916.463 341.703H919.52L921.404 349.643C921.508 350.098 921.593 350.593 921.658 351.127C921.723 351.654 921.772 352.23 921.805 352.855C921.928 352.029 922.156 350.98 922.488 349.711L922.537 349.506L924.637 341.703H927.645ZM937.42 342.484C937.42 342.042 937.579 341.661 937.898 341.342C938.217 341.023 938.598 340.863 939.041 340.863C939.49 340.863 939.874 341.023 940.193 341.342C940.519 341.654 940.682 342.035 940.682 342.484C940.682 342.934 940.519 343.318 940.193 343.637C939.874 343.956 939.49 344.115 939.041 344.115C938.598 344.115 938.217 343.952 937.898 343.627C937.579 343.301 937.42 342.921 937.42 342.484ZM937.664 356V346.42H940.438V356H937.664ZM943.26 356V346.42H945.984V347.924C946.486 347.299 947.023 346.84 947.596 346.547C948.175 346.247 948.816 346.098 949.52 346.098C950.262 346.098 950.883 346.225 951.385 346.479C951.893 346.726 952.293 347.107 952.586 347.621C952.729 347.888 952.83 348.191 952.889 348.529C952.954 348.861 952.986 349.385 952.986 350.102V350.404V356H950.203V351.264C950.203 350.085 950.066 349.307 949.793 348.93C949.52 348.552 949.051 348.363 948.387 348.363C948.003 348.363 947.648 348.445 947.322 348.607C947.003 348.764 946.736 348.988 946.521 349.281C946.352 349.509 946.229 349.77 946.15 350.062C946.079 350.355 946.043 350.801 946.043 351.4V351.781V356H943.26ZM955.486 342.484C955.486 342.042 955.646 341.661 955.965 341.342C956.284 341.023 956.665 340.863 957.107 340.863C957.557 340.863 957.941 341.023 958.26 341.342C958.585 341.654 958.748 342.035 958.748 342.484C958.748 342.934 958.585 343.318 958.26 343.637C957.941 343.956 957.557 344.115 957.107 344.115C956.665 344.115 956.284 343.952 955.965 343.627C955.646 343.301 955.486 342.921 955.486 342.484ZM955.73 356V346.42H958.504V356H955.73ZM961.326 356V346.42H964.051V347.924C964.552 347.299 965.089 346.84 965.662 346.547C966.242 346.247 966.883 346.098 967.586 346.098C968.328 346.098 968.95 346.225 969.451 346.479C969.959 346.726 970.359 347.107 970.652 347.621C970.796 347.888 970.896 348.191 970.955 348.529C971.02 348.861 971.053 349.385 971.053 350.102V350.404V356H968.27V351.264C968.27 350.085 968.133 349.307 967.859 348.93C967.586 348.552 967.117 348.363 966.453 348.363C966.069 348.363 965.714 348.445 965.389 348.607C965.07 348.764 964.803 348.988 964.588 349.281C964.419 349.509 964.295 349.77 964.217 350.062C964.145 350.355 964.109 350.801 964.109 351.4V351.781V356H961.326ZM983.27 355.844C983.27 356.853 983.208 357.562 983.084 357.973C982.967 358.383 982.762 358.738 982.469 359.037C982.052 359.486 981.518 359.818 980.867 360.033C980.216 360.248 979.425 360.355 978.494 360.355C976.938 360.355 975.757 360.108 974.949 359.613C974.142 359.118 973.702 358.367 973.631 357.357H976.688C976.733 357.729 976.902 358.002 977.195 358.178C977.488 358.354 977.921 358.441 978.494 358.441C979.249 358.441 979.793 358.246 980.125 357.855C980.464 357.465 980.633 356.814 980.633 355.902V354.535C980.262 355.128 979.812 355.567 979.285 355.854C978.764 356.14 978.146 356.283 977.43 356.283C976.115 356.283 975.063 355.824 974.275 354.906C973.488 353.982 973.094 352.738 973.094 351.176C973.094 349.587 973.478 348.344 974.246 347.445C975.014 346.547 976.076 346.098 977.43 346.098C978.126 346.098 978.745 346.26 979.285 346.586C979.832 346.905 980.288 347.377 980.652 348.002V346.42H983.27V355.844ZM980.75 351.195C980.75 350.349 980.535 349.682 980.105 349.193C979.676 348.705 979.09 348.461 978.348 348.461C977.586 348.461 976.99 348.705 976.561 349.193C976.131 349.675 975.916 350.342 975.916 351.195C975.916 352.048 976.128 352.712 976.551 353.188C976.974 353.663 977.566 353.9 978.328 353.9C979.09 353.9 979.682 353.663 980.105 353.188C980.535 352.712 980.75 352.048 980.75 351.195Z" fill="white"/>
<path d="M46.4453 114.43C46.4453 116.102 46.9219 117.43 47.875 118.414C48.8281 119.383 50.1172 119.867 51.7422 119.867C53.2891 119.867 54.5391 119.367 55.4922 118.367C56.4453 117.367 56.9219 116.055 56.9219 114.43C56.9219 112.711 56.4453 111.367 55.4922 110.398C54.5391 109.414 53.2266 108.922 51.5547 108.922C50.0547 108.922 48.8281 109.438 47.875 110.469C46.9219 111.5 46.4453 112.82 46.4453 114.43ZM49.3281 104.516C49.9688 104.172 50.625 103.93 51.2969 103.789C51.9688 103.633 52.7891 103.555 53.7578 103.555C56.6797 103.555 59.0703 104.547 60.9297 106.531C62.8047 108.516 63.7422 111.055 63.7422 114.148C63.7422 117.68 62.6016 120.523 60.3203 122.68C58.0547 124.836 55.0625 125.914 51.3438 125.914C47.8438 125.914 45.0391 124.836 42.9297 122.68C40.8359 120.523 39.7891 117.664 39.7891 114.102C39.7891 112.055 40.25 109.82 41.1719 107.398C42.1094 104.977 43.5469 102.281 45.4844 99.3125L50.9219 91.0156H59.125L49.3281 104.516ZM93.8359 108.102C93.8359 113.695 92.7188 118.062 90.4844 121.203C88.25 124.344 85.1484 125.914 81.1797 125.914C77.1797 125.914 74.0625 124.359 71.8281 121.25C69.6094 118.125 68.5 113.742 68.5 108.102C68.5 102.539 69.6172 98.1875 71.8516 95.0469C74.1016 91.9062 77.2109 90.3359 81.1797 90.3359C85.1953 90.3359 88.3047 91.8906 90.5078 95C92.7266 98.0938 93.8359 102.461 93.8359 108.102ZM75.6016 108.148C75.6016 111.836 76.0781 114.664 77.0312 116.633C77.9844 118.602 79.3516 119.586 81.1328 119.586C82.9609 119.586 84.3438 118.609 85.2812 116.656C86.2188 114.703 86.6875 111.836 86.6875 108.055C86.6875 104.32 86.2188 101.484 85.2812 99.5469C84.3438 97.6094 82.9766 96.6406 81.1797 96.6406C79.3672 96.6406 77.9844 97.625 77.0312 99.5938C76.0781 101.562 75.6016 104.414 75.6016 108.148ZM123.273 108.102C123.273 113.695 122.156 118.062 119.922 121.203C117.688 124.344 114.586 125.914 110.617 125.914C106.617 125.914 103.5 124.359 101.266 121.25C99.0469 118.125 97.9375 113.742 97.9375 108.102C97.9375 102.539 99.0547 98.1875 101.289 95.0469C103.539 91.9062 106.648 90.3359 110.617 90.3359C114.633 90.3359 117.742 91.8906 119.945 95C122.164 98.0938 123.273 102.461 123.273 108.102ZM105.039 108.148C105.039 111.836 105.516 114.664 106.469 116.633C107.422 118.602 108.789 119.586 110.57 119.586C112.398 119.586 113.781 118.609 114.719 116.656C115.656 114.703 116.125 111.836 116.125 108.055C116.125 104.32 115.656 101.484 114.719 99.5469C113.781 97.6094 112.414 96.6406 110.617 96.6406C108.805 96.6406 107.422 97.625 106.469 99.5938C105.516 101.562 105.039 104.414 105.039 108.148ZM142.938 96.3828H147.672V108.336H159.344V113H147.672V125H142.938V113H131.266V108.336H142.938V96.3828Z" fill="white"/>
<path d="M321.438 303.86C323.391 304.454 324.93 305.547 326.055 307.141C327.18 308.735 327.742 310.618 327.742 312.79C327.742 315.946 326.672 318.422 324.531 320.219C322.391 322.016 319.414 322.915 315.602 322.915C311.836 322.915 308.859 322.016 306.672 320.219C304.484 318.422 303.391 315.993 303.391 312.93C303.391 310.696 303.953 308.774 305.078 307.165C306.203 305.555 307.758 304.454 309.742 303.86C307.992 303.125 306.703 302.165 305.875 300.977C305.062 299.774 304.656 298.266 304.656 296.454C304.656 293.75 305.656 291.555 307.656 289.868C309.656 288.18 312.305 287.336 315.602 287.336C318.945 287.336 321.602 288.188 323.57 289.891C325.555 291.579 326.547 293.852 326.547 296.711C326.547 298.399 326.109 299.86 325.234 301.094C324.359 302.313 323.094 303.235 321.438 303.86ZM315.648 292.915C314.336 292.915 313.281 293.274 312.484 293.993C311.703 294.711 311.312 295.665 311.312 296.852C311.312 298.086 311.688 299.063 312.438 299.782C313.203 300.485 314.242 300.836 315.555 300.836C316.898 300.836 317.953 300.493 318.719 299.805C319.484 299.102 319.867 298.133 319.867 296.899C319.867 295.665 319.484 294.696 318.719 293.993C317.969 293.274 316.945 292.915 315.648 292.915ZM315.602 317.149C317.227 317.149 318.5 316.704 319.422 315.813C320.359 314.907 320.828 313.672 320.828 312.11C320.828 310.516 320.367 309.274 319.445 308.383C318.523 307.477 317.242 307.024 315.602 307.024C313.977 307.024 312.688 307.485 311.734 308.407C310.781 309.329 310.305 310.563 310.305 312.11C310.305 313.657 310.773 314.883 311.711 315.79C312.664 316.696 313.961 317.149 315.602 317.149ZM357.836 305.102C357.836 310.696 356.719 315.063 354.484 318.204C352.25 321.344 349.148 322.915 345.18 322.915C341.18 322.915 338.062 321.36 335.828 318.25C333.609 315.125 332.5 310.743 332.5 305.102C332.5 299.54 333.617 295.188 335.852 292.047C338.102 288.907 341.211 287.336 345.18 287.336C349.195 287.336 352.305 288.891 354.508 292C356.727 295.094 357.836 299.461 357.836 305.102ZM339.602 305.149C339.602 308.836 340.078 311.665 341.031 313.633C341.984 315.602 343.352 316.586 345.133 316.586C346.961 316.586 348.344 315.61 349.281 313.657C350.219 311.704 350.688 308.836 350.688 305.055C350.688 301.321 350.219 298.485 349.281 296.547C348.344 294.61 346.977 293.641 345.18 293.641C343.367 293.641 341.984 294.625 341.031 296.594C340.078 298.563 339.602 301.415 339.602 305.149ZM387.273 305.102C387.273 310.696 386.156 315.063 383.922 318.204C381.688 321.344 378.586 322.915 374.617 322.915C370.617 322.915 367.5 321.36 365.266 318.25C363.047 315.125 361.938 310.743 361.938 305.102C361.938 299.54 363.055 295.188 365.289 292.047C367.539 288.907 370.648 287.336 374.617 287.336C378.633 287.336 381.742 288.891 383.945 292C386.164 295.094 387.273 299.461 387.273 305.102ZM369.039 305.149C369.039 308.836 369.516 311.665 370.469 313.633C371.422 315.602 372.789 316.586 374.57 316.586C376.398 316.586 377.781 315.61 378.719 313.657C379.656 311.704 380.125 308.836 380.125 305.055C380.125 301.321 379.656 298.485 378.719 296.547C377.781 294.61 376.414 293.641 374.617 293.641C372.805 293.641 371.422 294.625 370.469 296.594C369.516 298.563 369.039 301.415 369.039 305.149ZM406.938 293.383H411.672V305.336H423.344V310H411.672V322H406.938V310H395.266V305.336H406.938V293.383Z" fill="white"/>
<path d="M613 113V84.7812H606.133L609.016 79.0156H619.914V113H613ZM657.836 96.1016C657.836 101.695 656.719 106.062 654.484 109.203C652.25 112.344 649.148 113.914 645.18 113.914C641.18 113.914 638.062 112.359 635.828 109.25C633.609 106.125 632.5 101.742 632.5 96.1016C632.5 90.5391 633.617 86.1875 635.852 83.0469C638.102 79.9062 641.211 78.3359 645.18 78.3359C649.195 78.3359 652.305 79.8906 654.508 83C656.727 86.0938 657.836 90.4609 657.836 96.1016ZM639.602 96.1484C639.602 99.8359 640.078 102.664 641.031 104.633C641.984 106.602 643.352 107.586 645.133 107.586C646.961 107.586 648.344 106.609 649.281 104.656C650.219 102.703 650.688 99.8359 650.688 96.0547C650.688 92.3203 650.219 89.4844 649.281 87.5469C648.344 85.6094 646.977 84.6406 645.18 84.6406C643.367 84.6406 641.984 85.625 641.031 87.5938C640.078 89.5625 639.602 92.4141 639.602 96.1484ZM687.273 96.1016C687.273 101.695 686.156 106.062 683.922 109.203C681.688 112.344 678.586 113.914 674.617 113.914C670.617 113.914 667.5 112.359 665.266 109.25C663.047 106.125 661.938 101.742 661.938 96.1016C661.938 90.5391 663.055 86.1875 665.289 83.0469C667.539 79.9062 670.648 78.3359 674.617 78.3359C678.633 78.3359 681.742 79.8906 683.945 83C686.164 86.0938 687.273 90.4609 687.273 96.1016ZM669.039 96.1484C669.039 99.8359 669.516 102.664 670.469 104.633C671.422 106.602 672.789 107.586 674.57 107.586C676.398 107.586 677.781 106.609 678.719 104.656C679.656 102.703 680.125 99.8359 680.125 96.0547C680.125 92.3203 679.656 89.4844 678.719 87.5469C677.781 85.6094 676.414 84.6406 674.617 84.6406C672.805 84.6406 671.422 85.625 670.469 87.5938C669.516 89.5625 669.039 92.4141 669.039 96.1484ZM714.953 107.328V113H691.188L703.375 97.0156C705.062 94.8125 706.234 93.0781 706.891 91.8125C707.562 90.5469 707.898 89.4297 707.898 88.4609C707.898 87.1172 707.492 86.0625 706.68 85.2969C705.883 84.5312 704.781 84.1484 703.375 84.1484C702.062 84.1484 701.016 84.6328 700.234 85.6016C699.453 86.5547 699.062 87.8438 699.062 89.4688V89.6328H692.148V89.0469C692.148 85.6406 693.125 83.0078 695.078 81.1484C697.031 79.2734 699.797 78.3359 703.375 78.3359C707.031 78.3359 709.875 79.1719 711.906 80.8438C713.938 82.5156 714.953 84.8516 714.953 87.8516C714.953 91.2266 712.312 96.2109 707.031 102.805L706.539 103.391L703.375 107.328H714.953ZM736.375 84.3828H741.109V96.3359H752.781V101H741.109V113H736.375V101H724.703V96.3359H736.375V84.3828Z" fill="white"/>
<path d="M847 328V299.782H840.133L843.016 294.016H853.914V328H847ZM890.078 322.329V328H866.312L878.5 312.016C880.188 309.813 881.359 308.079 882.016 306.813C882.688 305.547 883.023 304.43 883.023 303.461C883.023 302.118 882.617 301.063 881.805 300.297C881.008 299.532 879.906 299.149 878.5 299.149C877.188 299.149 876.141 299.633 875.359 300.602C874.578 301.555 874.188 302.844 874.188 304.469V304.633H867.273V304.047C867.273 300.641 868.25 298.008 870.203 296.149C872.156 294.274 874.922 293.336 878.5 293.336C882.156 293.336 885 294.172 887.031 295.844C889.062 297.516 890.078 299.852 890.078 302.852C890.078 306.227 887.438 311.211 882.156 317.805L881.664 318.391L878.5 322.329H890.078ZM921.273 311.102C921.273 316.696 920.156 321.063 917.922 324.204C915.688 327.344 912.586 328.915 908.617 328.915C904.617 328.915 901.5 327.36 899.266 324.25C897.047 321.125 895.938 316.743 895.938 311.102C895.938 305.54 897.055 301.188 899.289 298.047C901.539 294.907 904.648 293.336 908.617 293.336C912.633 293.336 915.742 294.891 917.945 298C920.164 301.094 921.273 305.461 921.273 311.102ZM903.039 311.149C903.039 314.836 903.516 317.665 904.469 319.633C905.422 321.602 906.789 322.586 908.57 322.586C910.398 322.586 911.781 321.61 912.719 319.657C913.656 317.704 914.125 314.836 914.125 311.055C914.125 307.321 913.656 304.485 912.719 302.547C911.781 300.61 910.414 299.641 908.617 299.641C906.805 299.641 905.422 300.625 904.469 302.594C903.516 304.563 903.039 307.415 903.039 311.149ZM950.711 311.102C950.711 316.696 949.594 321.063 947.359 324.204C945.125 327.344 942.023 328.915 938.055 328.915C934.055 328.915 930.938 327.36 928.703 324.25C926.484 321.125 925.375 316.743 925.375 311.102C925.375 305.54 926.492 301.188 928.727 298.047C930.977 294.907 934.086 293.336 938.055 293.336C942.07 293.336 945.18 294.891 947.383 298C949.602 301.094 950.711 305.461 950.711 311.102ZM932.477 311.149C932.477 314.836 932.953 317.665 933.906 319.633C934.859 321.602 936.227 322.586 938.008 322.586C939.836 322.586 941.219 321.61 942.156 319.657C943.094 317.704 943.562 314.836 943.562 311.055C943.562 307.321 943.094 304.485 942.156 302.547C941.219 300.61 939.852 299.641 938.055 299.641C936.242 299.641 934.859 300.625 933.906 302.594C932.953 304.563 932.477 307.415 932.477 311.149ZM970.375 299.383H975.109V311.336H986.781V316H975.109V328H970.375V316H958.703V311.336H970.375V299.383Z" fill="white"/>
<defs>
<filter id="filter0_d_512_494" x="162.939" y="162.939" width="193.561" height="193.561" filterUnits="userSpaceOnUse" color-interpolation-filters="sRGB">
<feFlood flood-opacity="0" result="BackgroundImageFix"/>
<feColorMatrix in="SourceAlpha" type="matrix" values="0 0 0 0 0 0 0 0 0 0 0 0 0 0 0 0 0 0 127 0" result="hardAlpha"/>
<feOffset dy="4"/>
<feGaussianBlur stdDeviation="2"/>
<feComposite in2="hardAlpha" operator="out"/>
<feColorMatrix type="matrix" values="0 0 0 0 0 0 0 0 0 0 0 0 0 0 0 0 0 0 0.25 0"/>
<feBlend mode="normal" in2="BackgroundImageFix" result="effect1_dropShadow_512_494"/>
<feBlend mode="normal" in="SourceGraphic" in2="effect1_dropShadow_512_494" result="shape"/>
</filter>
<filter id="filter1_d_512_494" x="688.939" y="119.939" width="193.561" height="193.561" filterUnits="userSpaceOnUse" color-interpolation-filters="sRGB">
<feFlood flood-opacity="0" result="BackgroundImageFix"/>
<feColorMatrix in="SourceAlpha" type="matrix" values="0 0 0 0 0 0 0 0 0 0 0 0 0 0 0 0 0 0 127 0" result="hardAlpha"/>
<feOffset dy="4"/>
<feGaussianBlur stdDeviation="2"/>
<feComposite in2="hardAlpha" operator="out"/>
<feColorMatrix type="matrix" values="0 0 0 0 0 0 0 0 0 0 0 0 0 0 0 0 0 0 0.25 0"/>
<feBlend mode="normal" in2="BackgroundImageFix" result="effect1_dropShadow_512_494"/>
<feBlend mode="normal" in="SourceGraphic" in2="effect1_dropShadow_512_494" result="shape"/>
</filter>
<filter id="filter2_d_512_494" x="443.865" y="106.5" width="180.814" height="206.312" filterUnits="userSpaceOnUse" color-interpolation-filters="sRGB">
<feFlood flood-opacity="0" result="BackgroundImageFix"/>
<feColorMatrix in="SourceAlpha" type="matrix" values="0 0 0 0 0 0 0 0 0 0 0 0 0 0 0 0 0 0 127 0" result="hardAlpha"/>
<feOffset dy="4"/>
<feGaussianBlur stdDeviation="2"/>
<feComposite in2="hardAlpha" operator="out"/>
<feColorMatrix type="matrix" values="0 0 0 0 0 0 0 0 0 0 0 0 0 0 0 0 0 0 0.25 0"/>
<feBlend mode="normal" in2="BackgroundImageFix" result="effect1_dropShadow_512_494"/>
<feBlend mode="normal" in="SourceGraphic" in2="effect1_dropShadow_512_494" result="shape"/>
</filter>
<filter id="filter3_d_512_494" x="0" y="11.2876" width="204" height="213.712" filterUnits="userSpaceOnUse" color-interpolation-filters="sRGB">
<feFlood flood-opacity="0" result="BackgroundImageFix"/>
<feColorMatrix in="SourceAlpha" type="matrix" values="0 0 0 0 0 0 0 0 0 0 0 0 0 0 0 0 0 0 127 0" result="hardAlpha"/>
<feOffset dy="4"/>
<feGaussianBlur stdDeviation="2"/>
<feComposite in2="hardAlpha" operator="out"/>
<feColorMatrix type="matrix" values="0 0 0 0 0 0 0 0 0 0 0 0 0 0 0 0 0 0 0.25 0"/>
<feBlend mode="normal" in2="BackgroundImageFix" result="effect1_dropShadow_512_494"/>
<feBlend mode="normal" in="SourceGraphic" in2="effect1_dropShadow_512_494" result="shape"/>
</filter>
<filter id="filter4_d_512_494" x="264" y="201" width="204" height="213.712" filterUnits="userSpaceOnUse" color-interpolation-filters="sRGB">
<feFlood flood-opacity="0" result="BackgroundImageFix"/>
<feColorMatrix in="SourceAlpha" type="matrix" values="0 0 0 0 0 0 0 0 0 0 0 0 0 0 0 0 0 0 127 0" result="hardAlpha"/>
<feOffset dy="4"/>
<feGaussianBlur stdDeviation="2"/>
<feComposite in2="hardAlpha" operator="out"/>
<feColorMatrix type="matrix" values="0 0 0 0 0 0 0 0 0 0 0 0 0 0 0 0 0 0 0.25 0"/>
<feBlend mode="normal" in2="BackgroundImageFix" result="effect1_dropShadow_512_494"/>
<feBlend mode="normal" in="SourceGraphic" in2="effect1_dropShadow_512_494" result="shape"/>
</filter>
<filter id="filter5_d_512_494" x="580" y="0" width="204" height="213.712" filterUnits="userSpaceOnUse" color-interpolation-filters="sRGB">
<feFlood flood-opacity="0" result="BackgroundImageFix"/>
<feColorMatrix in="SourceAlpha" type="matrix" values="0 0 0 0 0 0 0 0 0 0 0 0 0 0 0 0 0 0 127 0" result="hardAlpha"/>
<feOffset dy="4"/>
<feGaussianBlur stdDeviation="2"/>
<feComposite in2="hardAlpha" operator="out"/>
<feColorMatrix type="matrix" values="0 0 0 0 0 0 0 0 0 0 0 0 0 0 0 0 0 0 0.25 0"/>
<feBlend mode="normal" in2="BackgroundImageFix" result="effect1_dropShadow_512_494"/>
<feBlend mode="normal" in="SourceGraphic" in2="effect1_dropShadow_512_494" result="shape"/>
</filter>
<filter id="filter6_d_512_494" x="814" y="213" width="204" height="213.712" filterUnits="userSpaceOnUse" color-interpolation-filters="sRGB">
<feFlood flood-opacity="0" result="BackgroundImageFix"/>
<feColorMatrix in="SourceAlpha" type="matrix" values="0 0 0 0 0 0 0 0 0 0 0 0 0 0 0 0 0 0 127 0" result="hardAlpha"/>
<feOffset dy="4"/>
<feGaussianBlur stdDeviation="2"/>
<feComposite in2="hardAlpha" operator="out"/>
<feColorMatrix type="matrix" values="0 0 0 0 0 0 0 0 0 0 0 0 0 0 0 0 0 0 0.25 0"/>
<feBlend mode="normal" in2="BackgroundImageFix" result="effect1_dropShadow_512_494"/>
<feBlend mode="normal" in="SourceGraphic" in2="effect1_dropShadow_512_494" result="shape"/>
</filter>
<linearGradient id="paint0_linear_512_494" x1="259.5" y1="255.5" x2="258.793" y2="256.207" gradientUnits="userSpaceOnUse">
<stop stop-color="#F3F3F3"/>
<stop offset="1" stop-color="#D8DDE4"/>
</linearGradient>
<linearGradient id="paint1_linear_512_494" x1="785.5" y1="212.5" x2="784.793" y2="213.207" gradientUnits="userSpaceOnUse">
<stop stop-color="#CDCDCD"/>
<stop offset="1" stop-color="white"/>
</linearGradient>
<linearGradient id="paint2_linear_512_494" x1="533.599" y1="205.916" x2="534.356" y2="206.57" gradientUnits="userSpaceOnUse">
<stop stop-color="white"/>
<stop offset="1" stop-color="#CBCBCB"/>
</linearGradient>
<linearGradient id="paint3_linear_512_494" x1="102" y1="18" x2="102" y2="217" gradientUnits="userSpaceOnUse">
<stop stop-color="#37549B"/>
<stop offset="1" stop-color="#5A7CC4"/>
</linearGradient>
<linearGradient id="paint4_linear_512_494" x1="366" y1="207.712" x2="366" y2="406.712" gradientUnits="userSpaceOnUse">
<stop stop-color="#37549B"/>
<stop offset="1" stop-color="#5A7CC4"/>
</linearGradient>
<linearGradient id="paint5_linear_512_494" x1="682" y1="6.7124" x2="682" y2="205.712" gradientUnits="userSpaceOnUse">
<stop stop-color="#37549B"/>
<stop offset="1" stop-color="#5A7CC4"/>
</linearGradient>
<linearGradient id="paint6_linear_512_494" x1="916" y1="219.713" x2="916" y2="418.713" gradientUnits="userSpaceOnUse">
<stop stop-color="#37549B"/>
<stop offset="1" stop-color="#5A7CC4"/>
</linearGradient>
</defs>
</svg>
