<svg width="114" height="159" viewBox="0 0 114 159" fill="none" xmlns="http://www.w3.org/2000/svg">
<g opacity="0.3" filter="url(#filter0_d_492_485)">
<path d="M52.7071 0.292892C52.3166 -0.0976334 51.6834 -0.0976333 51.2929 0.292892L44.9289 6.65685C44.5384 7.04738 44.5384 7.68054 44.9289 8.07107C45.3195 8.46159 45.9526 8.46159 46.3431 8.07107L52 2.41422L57.6569 8.07107C58.0474 8.46159 58.6805 8.46159 59.0711 8.07107C59.4616 7.68054 59.4616 7.04738 59.0711 6.65685L52.7071 0.292892ZM51 67L51 84.5L53 84.5L53 67L51 67ZM53 67L53 1L51 1L51 67L53 67Z" fill="url(#paint0_linear_492_485)"/>
</g>
<g filter="url(#filter1_d_492_485)">
<circle cx="52" cy="94" r="34" fill="url(#paint1_linear_492_485)"/>
<circle cx="52" cy="94" r="36" stroke="white" stroke-width="4"/>
</g>
<path d="M28.5127 97.6377L29.7871 96.1948C29.9482 96.5903 30.207 96.9028 30.5635 97.1323C30.9199 97.3569 31.3203 97.4692 31.7646 97.4692C32.3018 97.4692 32.7266 97.3423 33.0391 97.0884C33.3516 96.8345 33.5078 96.4927 33.5078 96.063C33.5078 95.5552 32.9878 95.0498 31.9478 94.5469C31.6108 94.3857 31.3447 94.2539 31.1494 94.1514C30.2119 93.6631 29.5625 93.187 29.2012 92.7231C28.8398 92.2544 28.6592 91.6978 28.6592 91.0532C28.6592 90.1694 29.0083 89.4443 29.7065 88.8779C30.4097 88.3066 31.3203 88.021 32.4385 88.021C33.0879 88.021 33.647 88.1357 34.1157 88.3652C34.5894 88.5898 35.0068 88.9438 35.3682 89.4272L34.0132 90.7236C33.8521 90.4111 33.6372 90.1792 33.3687 90.0278C33.105 89.8716 32.7852 89.7935 32.4092 89.7935C31.9551 89.7935 31.5889 89.9082 31.3105 90.1377C31.0322 90.3623 30.8931 90.6553 30.8931 91.0166C30.8931 91.583 31.4448 92.1006 32.5483 92.5693C32.7681 92.6621 32.9365 92.7354 33.0537 92.7891C33.9619 93.2041 34.6333 93.6729 35.0679 94.1953C35.5073 94.7178 35.7271 95.3135 35.7271 95.9824C35.7271 96.9883 35.3828 97.7915 34.6943 98.3921C34.0107 98.9878 33.0903 99.2856 31.9331 99.2856C31.1128 99.2856 30.4097 99.144 29.8237 98.8608C29.2378 98.5776 28.8008 98.1699 28.5127 97.6377ZM41.6157 90.2256V99H39.3159V90.2256H36.6938V88.2773H44.2524V90.2256H41.6157ZM45.7393 99V88.2773H52.0527V90.2109H48.0317V92.4155H52.0527V94.3638H48.0317V97.0518H52.0527V99H45.7393ZM56.6157 93.1187H56.9453C57.5703 93.1187 58.0244 92.9893 58.3076 92.7305C58.5908 92.4717 58.7324 92.0566 58.7324 91.4854C58.7324 90.958 58.5908 90.5747 58.3076 90.3354C58.0244 90.0913 57.5703 89.9692 56.9453 89.9692H56.6157V93.1187ZM54.3086 99V88.2773H56.9453C58.3516 88.2773 59.3892 88.5459 60.0581 89.083C60.7319 89.6201 61.0688 90.4502 61.0688 91.5732C61.0688 92.6133 60.7295 93.4287 60.0508 94.0195C59.377 94.6104 58.4419 94.9058 57.2456 94.9058H56.6157V99H54.3086ZM71.5791 99V96.9419H66.4155V95.9531L71.5791 88.1675H73.542V95.4185H74.6699V96.9419H73.542V99H71.5791ZM71.6084 95.4185V91.7271C71.6084 91.3657 71.6133 91.0923 71.623 90.9067C71.6377 90.7212 71.6572 90.5503 71.6816 90.394C71.5889 90.6431 71.479 90.8921 71.3521 91.1411C71.2251 91.3901 71.0859 91.6343 70.9346 91.8735L68.6201 95.4185H71.6084Z" fill="#4663AC"/>
<defs>
<filter id="filter0_d_492_485" x="44.6367" y="0" width="24.7266" height="98.5" filterUnits="userSpaceOnUse" color-interpolation-filters="sRGB">
<feFlood flood-opacity="0" result="BackgroundImageFix"/>
<feColorMatrix in="SourceAlpha" type="matrix" values="0 0 0 0 0 0 0 0 0 0 0 0 0 0 0 0 0 0 127 0" result="hardAlpha"/>
<feOffset dx="6" dy="10"/>
<feGaussianBlur stdDeviation="2"/>
<feComposite in2="hardAlpha" operator="out"/>
<feColorMatrix type="matrix" values="0 0 0 0 1 0 0 0 0 1 0 0 0 0 1 0 0 0 1 0"/>
<feBlend mode="normal" in2="BackgroundImageFix" result="effect1_dropShadow_492_485"/>
<feBlend mode="normal" in="SourceGraphic" in2="effect1_dropShadow_492_485" result="shape"/>
</filter>
<filter id="filter1_d_492_485" x="0" y="45" width="114" height="114" filterUnits="userSpaceOnUse" color-interpolation-filters="sRGB">
<feFlood flood-opacity="0" result="BackgroundImageFix"/>
<feColorMatrix in="SourceAlpha" type="matrix" values="0 0 0 0 0 0 0 0 0 0 0 0 0 0 0 0 0 0 127 0" result="hardAlpha"/>
<feOffset dx="5" dy="8"/>
<feGaussianBlur stdDeviation="9.5"/>
<feComposite in2="hardAlpha" operator="out"/>
<feColorMatrix type="matrix" values="0 0 0 0 0 0 0 0 0 0 0 0 0 0 0 0 0 0 0.25 0"/>
<feBlend mode="normal" in2="BackgroundImageFix" result="effect1_dropShadow_492_485"/>
<feBlend mode="normal" in="SourceGraphic" in2="effect1_dropShadow_492_485" result="shape"/>
</filter>
<linearGradient id="paint0_linear_492_485" x1="67.5005" y1="63.5008" x2="111.501" y2="36.5009" gradientUnits="userSpaceOnUse">
<stop stop-color="#4160A8"/>
<stop offset="1" stop-color="#ABA6A6"/>
</linearGradient>
<linearGradient id="paint1_linear_492_485" x1="52" y1="60" x2="52" y2="128" gradientUnits="userSpaceOnUse">
<stop stop-color="#F0F0F0"/>
<stop offset="1" stop-color="white"/>
</linearGradient>
</defs>
</svg>
