<svg width="114" height="160" viewBox="0 0 114 160" fill="none" xmlns="http://www.w3.org/2000/svg">
<g opacity="0.3" filter="url(#filter0_d_1250_485)">
<path d="M52.7071 0.292892C52.3166 -0.0976333 51.6834 -0.0976334 51.2929 0.292892L44.9289 6.65685C44.5384 7.04738 44.5384 7.68054 44.9289 8.07107C45.3195 8.46159 45.9526 8.46159 46.3432 8.07107L52 2.41422L57.6569 8.07107C58.0474 8.46159 58.6805 8.46159 59.0711 8.07107C59.4616 7.68054 59.4616 7.04738 59.0711 6.65685L52.7071 0.292892ZM53 120L53 60.5L51 60.5L51 120L53 120ZM53 60.5L53 1L51 1L51 60.5L53 60.5Z" fill="url(#paint0_linear_1250_485)"/>
</g>
<g filter="url(#filter1_d_1250_485)">
<circle cx="52" cy="95" r="34" fill="url(#paint1_linear_1250_485)"/>
<circle cx="52" cy="95" r="36" stroke="white" stroke-width="4"/>
</g>
<path d="M28.5127 98.6377L29.7871 97.1948C29.9482 97.5903 30.207 97.9028 30.5635 98.1323C30.9199 98.3569 31.3203 98.4692 31.7646 98.4692C32.3018 98.4692 32.7266 98.3423 33.0391 98.0884C33.3516 97.8345 33.5078 97.4927 33.5078 97.063C33.5078 96.5552 32.9878 96.0498 31.9478 95.5469C31.6108 95.3857 31.3447 95.2539 31.1494 95.1514C30.2119 94.6631 29.5625 94.187 29.2012 93.7231C28.8398 93.2544 28.6592 92.6978 28.6592 92.0532C28.6592 91.1694 29.0083 90.4443 29.7065 89.8779C30.4097 89.3066 31.3203 89.021 32.4385 89.021C33.0879 89.021 33.647 89.1357 34.1157 89.3652C34.5894 89.5898 35.0068 89.9438 35.3682 90.4272L34.0132 91.7236C33.8521 91.4111 33.6372 91.1792 33.3687 91.0278C33.105 90.8716 32.7852 90.7935 32.4092 90.7935C31.9551 90.7935 31.5889 90.9082 31.3105 91.1377C31.0322 91.3623 30.8931 91.6553 30.8931 92.0166C30.8931 92.583 31.4448 93.1006 32.5483 93.5693C32.7681 93.6621 32.9365 93.7354 33.0537 93.7891C33.9619 94.2041 34.6333 94.6729 35.0679 95.1953C35.5073 95.7178 35.7271 96.3135 35.7271 96.9824C35.7271 97.9883 35.3828 98.7915 34.6943 99.3921C34.0107 99.9878 33.0903 100.286 31.9331 100.286C31.1128 100.286 30.4097 100.144 29.8237 99.8608C29.2378 99.5776 28.8008 99.1699 28.5127 98.6377ZM41.6157 91.2256V100H39.3159V91.2256H36.6938V89.2773H44.2524V91.2256H41.6157ZM45.7393 100V89.2773H52.0527V91.2109H48.0317V93.4155H52.0527V95.3638H48.0317V98.0518H52.0527V100H45.7393ZM56.6157 94.1187H56.9453C57.5703 94.1187 58.0244 93.9893 58.3076 93.7305C58.5908 93.4717 58.7324 93.0566 58.7324 92.4854C58.7324 91.958 58.5908 91.5747 58.3076 91.3354C58.0244 91.0913 57.5703 90.9692 56.9453 90.9692H56.6157V94.1187ZM54.3086 100V89.2773H56.9453C58.3516 89.2773 59.3892 89.5459 60.0581 90.083C60.7319 90.6201 61.0688 91.4502 61.0688 92.5732C61.0688 93.6133 60.7295 94.4287 60.0508 95.0195C59.377 95.6104 58.4419 95.9058 57.2456 95.9058H56.6157V100H54.3086ZM74.084 98.2275V100H66.6572L70.4658 95.0049C70.9932 94.3164 71.3594 93.7744 71.5645 93.3789C71.7744 92.9834 71.8794 92.6343 71.8794 92.3315C71.8794 91.9116 71.7524 91.582 71.4985 91.3428C71.2495 91.1035 70.9053 90.9839 70.4658 90.9839C70.0557 90.9839 69.7285 91.1353 69.4844 91.438C69.2402 91.7358 69.1182 92.1387 69.1182 92.6465V92.6978H66.9575V92.5146C66.9575 91.4502 67.2627 90.6274 67.873 90.0464C68.4834 89.4604 69.3477 89.1675 70.4658 89.1675C71.6084 89.1675 72.4971 89.4287 73.1318 89.9512C73.7666 90.4736 74.084 91.2036 74.084 92.1411C74.084 93.1958 73.2588 94.7534 71.6084 96.814L71.4546 96.9971L70.4658 98.2275H74.084Z" fill="#4663AC"/>
<defs>
<filter id="filter0_d_1250_485" x="44.6367" y="0" width="24.7266" height="134" filterUnits="userSpaceOnUse" color-interpolation-filters="sRGB">
<feFlood flood-opacity="0" result="BackgroundImageFix"/>
<feColorMatrix in="SourceAlpha" type="matrix" values="0 0 0 0 0 0 0 0 0 0 0 0 0 0 0 0 0 0 127 0" result="hardAlpha"/>
<feOffset dx="6" dy="10"/>
<feGaussianBlur stdDeviation="2"/>
<feComposite in2="hardAlpha" operator="out"/>
<feColorMatrix type="matrix" values="0 0 0 0 1 0 0 0 0 1 0 0 0 0 1 0 0 0 1 0"/>
<feBlend mode="normal" in2="BackgroundImageFix" result="effect1_dropShadow_1250_485"/>
<feBlend mode="normal" in="SourceGraphic" in2="effect1_dropShadow_1250_485" result="shape"/>
</filter>
<filter id="filter1_d_1250_485" x="0" y="46" width="114" height="114" filterUnits="userSpaceOnUse" color-interpolation-filters="sRGB">
<feFlood flood-opacity="0" result="BackgroundImageFix"/>
<feColorMatrix in="SourceAlpha" type="matrix" values="0 0 0 0 0 0 0 0 0 0 0 0 0 0 0 0 0 0 127 0" result="hardAlpha"/>
<feOffset dx="5" dy="8"/>
<feGaussianBlur stdDeviation="9.5"/>
<feComposite in2="hardAlpha" operator="out"/>
<feColorMatrix type="matrix" values="0 0 0 0 0 0 0 0 0 0 0 0 0 0 0 0 0 0 0.25 0"/>
<feBlend mode="normal" in2="BackgroundImageFix" result="effect1_dropShadow_1250_485"/>
<feBlend mode="normal" in="SourceGraphic" in2="effect1_dropShadow_1250_485" result="shape"/>
</filter>
<linearGradient id="paint0_linear_1250_485" x1="67.5003" y1="74.0392" x2="102.278" y2="44.0905" gradientUnits="userSpaceOnUse">
<stop stop-color="#4160A8"/>
<stop offset="1" stop-color="#ABA6A6"/>
</linearGradient>
<linearGradient id="paint1_linear_1250_485" x1="52" y1="61" x2="52" y2="129" gradientUnits="userSpaceOnUse">
<stop stop-color="#F0F0F0"/>
<stop offset="1" stop-color="white"/>
</linearGradient>
</defs>
</svg>
