<svg width="114" height="187" viewBox="0 0 114 187" fill="none" xmlns="http://www.w3.org/2000/svg">
<g opacity="0.3" filter="url(#filter0_d_1250_486)">
<path d="M51.2929 172.707C51.6834 173.098 52.3166 173.098 52.7071 172.707L59.0711 166.343C59.4616 165.953 59.4616 165.319 59.0711 164.929C58.6805 164.538 58.0474 164.538 57.6568 164.929L52 170.586L46.3431 164.929C45.9526 164.538 45.3194 164.538 44.9289 164.929C44.5384 165.319 44.5384 165.953 44.9289 166.343L51.2929 172.707ZM51 52L51 112L53 112L53 52L51 52ZM51 112L51 172L53 172L53 112L51 112Z" fill="url(#paint0_linear_1250_486)"/>
</g>
<g filter="url(#filter1_d_1250_486)">
<circle cx="52" cy="49" r="34" fill="url(#paint1_linear_1250_486)"/>
<circle cx="52" cy="49" r="36" stroke="white" stroke-width="4"/>
</g>
<path d="M28.5127 56.6377L29.7871 55.1948C29.9482 55.5903 30.207 55.9028 30.5635 56.1323C30.9199 56.3569 31.3203 56.4692 31.7646 56.4692C32.3018 56.4692 32.7266 56.3423 33.0391 56.0884C33.3516 55.8345 33.5078 55.4927 33.5078 55.063C33.5078 54.5552 32.9878 54.0498 31.9478 53.5469C31.6108 53.3857 31.3447 53.2539 31.1494 53.1514C30.2119 52.6631 29.5625 52.187 29.2012 51.7231C28.8398 51.2544 28.6592 50.6978 28.6592 50.0532C28.6592 49.1694 29.0083 48.4443 29.7065 47.8779C30.4097 47.3066 31.3203 47.021 32.4385 47.021C33.0879 47.021 33.647 47.1357 34.1157 47.3652C34.5894 47.5898 35.0068 47.9438 35.3682 48.4272L34.0132 49.7236C33.8521 49.4111 33.6372 49.1792 33.3687 49.0278C33.105 48.8716 32.7852 48.7935 32.4092 48.7935C31.9551 48.7935 31.5889 48.9082 31.3105 49.1377C31.0322 49.3623 30.8931 49.6553 30.8931 50.0166C30.8931 50.583 31.4448 51.1006 32.5483 51.5693C32.7681 51.6621 32.9365 51.7354 33.0537 51.7891C33.9619 52.2041 34.6333 52.6729 35.0679 53.1953C35.5073 53.7178 35.7271 54.3135 35.7271 54.9824C35.7271 55.9883 35.3828 56.7915 34.6943 57.3921C34.0107 57.9878 33.0903 58.2856 31.9331 58.2856C31.1128 58.2856 30.4097 58.144 29.8237 57.8608C29.2378 57.5776 28.8008 57.1699 28.5127 56.6377ZM41.6157 49.2256V58H39.3159V49.2256H36.6938V47.2773H44.2524V49.2256H41.6157ZM45.7393 58V47.2773H52.0527V49.2109H48.0317V51.4155H52.0527V53.3638H48.0317V56.0518H52.0527V58H45.7393ZM56.6157 52.1187H56.9453C57.5703 52.1187 58.0244 51.9893 58.3076 51.7305C58.5908 51.4717 58.7324 51.0566 58.7324 50.4854C58.7324 49.958 58.5908 49.5747 58.3076 49.3354C58.0244 49.0913 57.5703 48.9692 56.9453 48.9692H56.6157V52.1187ZM54.3086 58V47.2773H56.9453C58.3516 47.2773 59.3892 47.5459 60.0581 48.083C60.7319 48.6201 61.0688 49.4502 61.0688 50.5732C61.0688 51.6133 60.7295 52.4287 60.0508 53.0195C59.377 53.6104 58.4419 53.9058 57.2456 53.9058H56.6157V58H54.3086ZM66.8477 55.1655H68.9644V55.1948C68.9644 55.5806 69.1084 55.8955 69.3965 56.1396C69.6895 56.3789 70.0703 56.4985 70.5391 56.4985C71.0811 56.4985 71.4985 56.3643 71.7915 56.0957C72.0894 55.8271 72.2383 55.4463 72.2383 54.9531C72.2383 54.4307 72.0845 54.0352 71.7769 53.7666C71.4741 53.498 71.0273 53.3638 70.4365 53.3638C70.4072 53.3638 70.3608 53.3662 70.2974 53.3711C70.2339 53.376 70.1851 53.3784 70.1509 53.3784V51.5034C70.1802 51.5034 70.2241 51.5059 70.2827 51.5107C70.3413 51.5156 70.3828 51.5181 70.4072 51.5181C70.9346 51.5181 71.3301 51.4058 71.5938 51.1812C71.8623 50.9565 71.9966 50.6196 71.9966 50.1704C71.9966 49.7896 71.8745 49.4819 71.6304 49.2476C71.3911 49.0132 71.0737 48.896 70.6782 48.896C70.2583 48.896 69.9287 48.9912 69.6895 49.1816C69.4502 49.3721 69.3086 49.6455 69.2646 50.002H67.2285C67.2822 49.0938 67.6118 48.3955 68.2173 47.9072C68.8228 47.4141 69.6675 47.1675 70.7515 47.1675C71.7915 47.1675 72.6167 47.4238 73.2271 47.9365C73.8374 48.4492 74.1426 49.1426 74.1426 50.0166C74.1426 50.627 73.9766 51.147 73.6445 51.5767C73.3174 52.0015 72.8828 52.2627 72.3408 52.3604C72.9707 52.4971 73.4712 52.812 73.8423 53.3052C74.2134 53.7983 74.3989 54.3989 74.3989 55.1069C74.3989 56.0884 74.0498 56.8647 73.3516 57.436C72.6533 58.0024 71.7012 58.2856 70.4951 58.2856C69.3965 58.2856 68.5127 58.0073 67.8438 57.4507C67.1797 56.894 66.8477 56.1616 66.8477 55.2534V55.1655Z" fill="#4663AC"/>
<defs>
<filter id="filter0_d_1250_486" x="44.6367" y="52" width="24.7266" height="135" filterUnits="userSpaceOnUse" color-interpolation-filters="sRGB">
<feFlood flood-opacity="0" result="BackgroundImageFix"/>
<feColorMatrix in="SourceAlpha" type="matrix" values="0 0 0 0 0 0 0 0 0 0 0 0 0 0 0 0 0 0 127 0" result="hardAlpha"/>
<feOffset dx="6" dy="10"/>
<feGaussianBlur stdDeviation="2"/>
<feComposite in2="hardAlpha" operator="out"/>
<feColorMatrix type="matrix" values="0 0 0 0 1 0 0 0 0 1 0 0 0 0 1 0 0 0 1 0"/>
<feBlend mode="normal" in2="BackgroundImageFix" result="effect1_dropShadow_1250_486"/>
<feBlend mode="normal" in="SourceGraphic" in2="effect1_dropShadow_1250_486" result="shape"/>
</filter>
<filter id="filter1_d_1250_486" x="0" y="0" width="114" height="114" filterUnits="userSpaceOnUse" color-interpolation-filters="sRGB">
<feFlood flood-opacity="0" result="BackgroundImageFix"/>
<feColorMatrix in="SourceAlpha" type="matrix" values="0 0 0 0 0 0 0 0 0 0 0 0 0 0 0 0 0 0 127 0" result="hardAlpha"/>
<feOffset dx="5" dy="8"/>
<feGaussianBlur stdDeviation="9.5"/>
<feComposite in2="hardAlpha" operator="out"/>
<feColorMatrix type="matrix" values="0 0 0 0 0 0 0 0 0 0 0 0 0 0 0 0 0 0 0.25 0"/>
<feBlend mode="normal" in2="BackgroundImageFix" result="effect1_dropShadow_1250_486"/>
<feBlend mode="normal" in="SourceGraphic" in2="effect1_dropShadow_1250_486" result="shape"/>
</filter>
<linearGradient id="paint0_linear_1250_486" x1="36.4997" y1="98.347" x2="1.47454" y2="128.258" gradientUnits="userSpaceOnUse">
<stop stop-color="#4160A8"/>
<stop offset="1" stop-color="#ABA6A6"/>
</linearGradient>
<linearGradient id="paint1_linear_1250_486" x1="52" y1="15" x2="52" y2="83" gradientUnits="userSpaceOnUse">
<stop stop-color="#F0F0F0"/>
<stop offset="1" stop-color="white"/>
</linearGradient>
</defs>
</svg>
